<?xml version="1.0" encoding="UTF-8"?><svg xmlns="http://www.w3.org/2000/svg" viewBox="0 0 24 24" fill="none" stroke="#e5e7eb" stroke-width="2" stroke-linecap="round" stroke-linejoin="round"><path d="M16 21V2C16 1.46957 15.7893 1.96086 15.4142 1.58579C15.0391 1.21071 14.5304 1 14 1H6C5.46957 1 4.96086 1.21071 4.58579 1.58579C4.21071 1.96086 4 2.46957 4 3V21M4 21H16M4 21C2.89543 21 2 20.1046 2 19V5C2 3.89543 2.89543 3 4 3M16 21C17.1046 21 18 20.1046 18 19V5C18 3.89543 17.1046 3 16 3M12 6H8M12 10H8M12 14H8"/></svg>